<?xml version="1.0" encoding="utf-8"?>
<!-- Generator: Adobe Illustrator 18.1.1, SVG Export Plug-In . SVG Version: 6.00 Build 0)  -->
<svg version="1.1" xmlns="http://www.w3.org/2000/svg" xmlns:xlink="http://www.w3.org/1999/xlink" x="0px" y="0px"
	 viewBox="0 0 792 292.5" enable-background="new 0 0 792 292.5" xml:space="preserve">
<symbol  id="Logo" viewBox="-334 -307.2 668 614.5">
	<path fill="#62AC3C" d="M328.7-5.7c0-134.4-83.1-249.3-200.8-296.3h-236.4c-104,41-181,136-197.5,250.3
		c4,136.8,146.9,244.3,213.2,168.9c1-1.1,2-2.3,2.9-3.4c0.2-0.2,0.4-0.5,0.7-0.8c1-1.2,2.1-2.5,3.1-3.7c1.1-1.3,2.2-2.7,3.4-4.1
		c4.7-5.8,9.4-11.8,14.1-18c0.6-0.8,1.2-1.6,1.8-2.4c0.6-0.8,1.2-1.6,1.8-2.4c1.2-1.6,2.4-3.2,3.6-4.8c2-2.7,4-5.3,6-8.1
		c0.4-0.6,0.8-1.1,1.3-1.7c1.1-1.5,2.2-3,3.3-4.5l20.3-27.5C-22.8,25.2-14,14.5-6,4.1v0c1-1.3,2.3-2.6,3.4-3.9
		c8.1-9.7,16.6-19.1,25.5-28c40.2-40.5,88.7-70.6,152.8-68.3c136.8,5,66.9,308.3,66.9,308.3C296,155.2,328.7,78.6,328.7-5.7z"/>
	<path fill="#A4CC5F" d="M175.7-96.1C97.4-99,42.5-53.4-2.5,0.2C35.7-30.4,92.8-45,115.3-12.6c1.1,1.5,2.1,3.1,3.1,4.6l47.2-32.9
		c0,0,22.6,26.8-24.1,69.7c-5.3,4.9-10.7,9.1-16.1,12.9c-5.8,28-23.9,54.7-36.2,70.3c-15.4,19.6-26.6,42.3-32.3,66.6
		c-15.3,65.9,17.3,102.9,33,116.3c4.5,3.9,10.7,5.1,16.4,3.3c52.7-16.7,99.4-46.8,136.3-86.1C242.6,212.1,312.4-91.1,175.7-96.1z"/>
	<path fill="#A4CC5F" d="M-10.3,219.3C-22.4,170.4-6.2,130.4,1,115.9c-1.1-2.4-2.2-4.8-3.4-7.3c-11.2-4.7-19-15.8-19-28.7
		c0-2.1,0.2-4.2,0.6-6.1c-0.4-0.8-0.9-1.5-1.3-2.3l-26.5-11.1c-1.9,2.5-3.7,5.1-5.6,7.6c-0.4,0.6-0.8,1.1-1.3,1.7
		c-2,2.7-4,5.4-6,8.1c-1.2,1.6-2.4,3.2-3.6,4.8c-0.6,0.8-1.2,1.6-1.8,2.4c-0.6,0.8-1.2,1.6-1.8,2.4c-4.7,6.2-9.4,12.3-14.1,18
		c-1.1,1.4-2.2,2.7-3.3,4.1c-1,1.3-2.1,2.5-3.1,3.7c-0.2,0.3-0.4,0.5-0.6,0.8c-1,1.1-1.9,2.3-2.9,3.4
		C-159.2,192.5-302.1,84.9-306-51.8c-2.2,15-3.3,30.4-3.3,46c0,154.4,109.6,283.1,255.3,312.7c3.2,0.7,6.6,0.5,9.7-0.4
		c13.6-4,40.6-14.9,56.9-42.2C4.1,256.5-4.5,243-10.3,219.3z"/>
	<path fill="#A4CC5F" stroke="#000000" stroke-width="10" stroke-miterlimit="10" d="M40.9,79.9c0-4-0.7-7.7-2.1-11.2
		c-2.1-5.6-5.8-10.4-10.5-13.8c-3.2-2.4-6.8-4.1-10.7-5.1c-2.5-0.6-5.1-1-7.8-1c-4.3,0-8.5,0.9-12.2,2.5c-4.2,1.8-7.8,4.4-10.8,7.7
		c-3.7,4.1-6.4,9.2-7.5,14.8c-0.4,2-0.6,4-0.6,6.1c0,12.9,7.8,24,19,28.7c2,0.8,4.1,1.5,6.3,1.9c1.9,0.4,3.8,0.5,5.8,0.5
		c4.2,0,8.2-0.8,11.8-2.3C32.8,104.1,40.9,92.9,40.9,79.9z"/>
	<path fill="none" stroke="#000000" stroke-width="10" stroke-linecap="round" stroke-linejoin="round" stroke-miterlimit="10" d="
		M250.4-62c0-1.5-0.2-3-0.5-4.5c-1-4.5-3.4-8.5-6.7-11.4c-1.9-1.7-4.1-3-6.4-3.9c-0.7-0.3-1.5-0.5-2.2-0.7c-1.7-0.5-3.5-0.7-5.3-0.7
		c-2.9,0-5.7,0.6-8.3,1.7c-3.7,1.6-6.9,4.2-9.2,7.5c-2.3,3.4-3.7,7.5-3.7,11.9c0,0.5,0,1,0.1,1.5c0.8,10.6,9.3,19,19.9,19.6
		c0.4,0,0.8,0,1.1,0c4.6,0,8.8-1.4,12.3-3.9C246.9-48.6,250.4-54.9,250.4-62z"/>
	<path fill="none" stroke="#000000" stroke-width="10" stroke-linecap="round" stroke-linejoin="round" stroke-miterlimit="10" d="
		M28.2-104h-41.6L-5.8,4.2l3.3,47.1c3.8-1.6,7.9-2.5,12.2-2.5c2.7,0,5.3,0.3,7.8,1l5.4-77.5L28.2-104z"/>
	
		<polygon fill="none" stroke="#000000" stroke-width="10" stroke-linecap="round" stroke-linejoin="round" stroke-miterlimit="10" points="
		-36.8,-104 -51.1,-167 -165.2,-167 -134,-104 	"/>
	
		<polygon fill="none" stroke="#000000" stroke-width="10" stroke-linecap="round" stroke-linejoin="round" stroke-miterlimit="10" points="
		184.2,-167 71.8,-167 57.5,-104 154.6,-104 	"/>
	
		<polygon fill="none" stroke="#000000" stroke-width="10" stroke-linecap="round" stroke-linejoin="round" stroke-miterlimit="10" points="
		71.8,-167 -51.1,-167 -36.8,-104 57.5,-104 	"/>
	
		<polygon fill="none" stroke="#000000" stroke-width="10" stroke-linecap="round" stroke-linejoin="round" stroke-miterlimit="10" points="
		86.1,-230 -65.4,-230 -51.1,-167 71.8,-167 	"/>
	
		<polygon fill="none" stroke="#000000" stroke-width="10" stroke-linecap="round" stroke-linejoin="round" stroke-miterlimit="10" points="
		-51.1,-167 -65.4,-230 -196.4,-230 -165.2,-167 	"/>
	
		<polygon fill="none" stroke="#000000" stroke-width="10" stroke-linecap="round" stroke-linejoin="round" stroke-miterlimit="10" points="
		213.9,-230 86.1,-230 71.8,-167 184.2,-167 	"/>
	
		<line fill="none" stroke="#000000" stroke-width="10" stroke-linecap="round" stroke-linejoin="round" stroke-miterlimit="10" x1="-165" y1="-167" x2="-165" y2="-167"/>
	<path fill="none" stroke="#000000" stroke-width="10" stroke-linecap="round" stroke-linejoin="round" stroke-miterlimit="10" d="
		M-173.3,56c0-15-12.2-27.2-27.2-27.2S-227.6,41-227.6,56s12.2,27.2,27.2,27.2S-173.3,71-173.3,56z"/>
	<path fill="none" stroke="#000000" stroke-width="10" stroke-linecap="round" stroke-linejoin="round" stroke-miterlimit="10" d="
		M191.2,151.8c0-17.9-14.5-32.4-32.4-32.4s-32.4,14.5-32.4,32.4s14.5,32.4,32.4,32.4S191.2,169.7,191.2,151.8z"/>
	<path fill="none" stroke="#000000" stroke-width="10" stroke-linecap="round" stroke-linejoin="round" stroke-miterlimit="10" d="
		M-263.4,74.4c0-17.9-14.5-32.4-32.4-32.4s-32.4,14.5-32.4,32.4s14.5,32.4,32.4,32.4S-263.4,92.3-263.4,74.4z"/>
	
		<polygon fill="none" stroke="#000000" stroke-width="10" stroke-linecap="round" stroke-linejoin="round" stroke-miterlimit="10" points="
		38.9,-302 -21.5,-302 -16.4,-230 33.8,-230 	"/>
	<path fill="none" stroke="#000000" stroke-width="10" stroke-linecap="round" stroke-linejoin="round" stroke-miterlimit="10" d="
		M245.8-302h-34L221-81.3c2.5-1.1,5.4-1.7,8.3-1.7c1.8,0,3.6,0.2,5.3,0.7c0.8,0.2,1.5,0.5,2.2,0.8L245.8-302z"/>
	<line fill="none" stroke="#000000" stroke-width="10" stroke-miterlimit="10" x1="-275" y1="-302" x2="275" y2="-302"/>
	<path fill="#62AC3C" d="M165.6-40.9L118.4-8c9.4,15.6,10.4,32.9,6.9,49.7c5.4-3.7,10.8-8,16.1-12.9
		C188.3-14.1,165.6-40.9,165.6-40.9z"/>
	<path fill="#A4CC5F" d="M118.4-8L28.2,54.9c4.7,3.5,8.4,8.3,10.5,13.8c0,0,44,2.5,86.6-27C128.8,24.9,127.9,7.6,118.4-8z"/>
	
		<path fill="#A4CC5F" stroke="#000000" stroke-width="10" stroke-linecap="round" stroke-linejoin="round" stroke-miterlimit="10" d="
		M39.2,274L21.5,108.8c-3.6,1.5-7.6,2.3-11.8,2.3c-2,0-3.9-0.2-5.8-0.5c-0.5,0.8-1.5,2.6-2.9,5.4c-7.2,14.5-23.4,54.5-11.3,103.4
		c5.8,23.6,14.5,37.2,22.9,44.9C26.1,276.7,39.2,274,39.2,274z"/>
	
		<path fill="#A4CC5F" stroke="#000000" stroke-width="10" stroke-linecap="round" stroke-linejoin="round" stroke-miterlimit="10" d="
		M-13.4,58.9c0,0-5.7-10.2-17.3-23.1c-14.6-16.2-38.8-36.5-73-45.7c-61.3-16.5-71.8,16.9-71.8,16.9l126.7,53.2l26.5,11.1
		c0.5,0.8,0.9,1.5,1.3,2.3C-19.8,68.1-17.1,63-13.4,58.9z"/>
	<path fill="none" stroke="#000000" stroke-width="10" stroke-linecap="round" stroke-linejoin="round" stroke-miterlimit="10" d="
		M326.3-138.8l-83.1,61c3.3,2.9,5.7,6.9,6.7,11.4c0,0,30.8-3.2,51.7-19.3C338.6-111.4,326.3-138.8,326.3-138.8z"/>
	<path fill="none" stroke="#000000" stroke-width="10" stroke-linecap="round" stroke-linejoin="round" stroke-miterlimit="10" d="
		M272.7,52.9l-31.2-97.7c-3.5,2.5-7.7,3.9-12.3,3.9c-0.4,0-0.8,0-1.1,0c-1.2,6.6-5.3,32.1,2.2,53.6
		C242.8,55.8,272.7,52.9,272.7,52.9z"/>
	<path fill="none" stroke="#000000" stroke-width="10" stroke-linecap="round" stroke-linejoin="round" stroke-miterlimit="10" d="
		M211.8-74c-5-4.5-24.8-21-47-25.7c-43.5-11.5-56.4,15.6-56.4,15.6l99.7,23.6c0-0.5-0.1-1-0.1-1.5C208.1-66.5,209.5-70.6,211.8-74z"
		/>
	<path fill="none" stroke="#000000" stroke-width="10" stroke-linecap="round" stroke-linejoin="round" stroke-miterlimit="10" d="
		M-209.5-302.2c0,0,7.5,144.8-18.1,224.8"/>
	<path fill="none" stroke="#000000" stroke-width="10" stroke-linecap="round" stroke-linejoin="round" stroke-miterlimit="10" d="
		M-212.3-162c0,0-45.4,28-51.1,62.7s26.8,70.1,40.3,88.2c0,0,51.4-48.3,47.6-88.2S-206.7-156.4-212.3-162z"/>
	<path fill="none" stroke="#000000" stroke-width="10" stroke-linecap="round" stroke-linejoin="round" stroke-miterlimit="10" d="
		M165.6-40.9L28.2,54.9c4.7,3.5,8.4,8.3,10.5,13.8c0,0,56,3.2,102.7-39.8S165.6-40.9,165.6-40.9z"/>
	<polygon display="none" fill="none" points="-334,307 334,307 334,-307 -334,-307 	"/>
</symbol>
<g id="Layer_1" display="none">
	<g display="inline">
		<g>
			<path fill="#62AC3C" d="M724.5,95c0,134.4-83.1,249.4-200.8,296.4H287.2c-104-41.5-181-136.2-197.5-250.4
				C93.7,4.2,236.6-103.4,303-27.9c1,1.1,2,2.2,2.9,3.4c0.2,0.2,0.4,0.5,0.7,0.8c1,1.2,2.1,2.5,3.1,3.7c1.1,1.3,2.2,2.7,3.4,4.1
				c4.7,5.8,9.4,11.8,14.1,18c0.6,0.8,1.2,1.6,1.8,2.4c0.6,0.8,1.2,1.6,1.8,2.4c1.2,1.6,2.4,3.2,3.6,4.8c2,2.7,4,5.3,6,8.1
				c0.4,0.6,0.8,1.1,1.3,1.7c1.1,1.5,2.2,3,3.3,4.5l20.3,27.5c8,10.7,16.2,21.3,24.8,31.7v0c1.1,1.3,2.2,2.6,3.3,3.9
				c8.1,9.7,16.6,19.1,25.5,28c40.2,40.5,88.6,70.6,152.8,68.3c136.8-5,66.9-308.2,66.9-308.2C691.8-66,724.5,10.7,724.5,95z"/>
			<path fill="#A4CC5F" d="M571.4,185.2c-78.3,2.9-133.1-42.7-178.2-96.3c38.3,30.6,95.3,45.2,117.9,12.8c1.1-1.5,2.1-3.1,3.1-4.6
				l47.2,32.9c0,0,22.6-26.8-24.1-69.7c-5.3-4.9-10.7-9.1-16.1-12.9c-5.8-28-23.9-54.7-36.2-70.3c-15.4-19.6-26.6-42.3-32.3-66.6
				c-15.3-65.9,17.3-102.9,33-116.3c4.5-3.9,10.7-5.1,16.4-3.3c52.7,16.7,99.4,46.8,136.3,86.1C638.4-123,708.2,180.2,571.4,185.2z"
				/>
			<path fill="#A4CC5F" d="M385.4-130.2c-12.1,48.9,4.1,88.9,11.3,103.4c-1.1,2.4-2.2,4.8-3.4,7.3c-11.2,4.7-19,15.8-19,28.7
				c0,2.1,0.2,4.2,0.6,6.1c-0.4,0.8-0.9,1.5-1.3,2.3L347,28.8c-1.9-2.5-3.7-5.1-5.6-7.6c-0.4-0.6-0.8-1.1-1.3-1.7
				c-2-2.7-4-5.4-6-8.1c-1.2-1.6-2.4-3.2-3.6-4.8c-0.6-0.8-1.2-1.6-1.8-2.4c-0.6-0.8-1.2-1.6-1.8-2.4c-4.7-6.2-9.4-12.3-14.1-18
				c-1.1-1.4-2.2-2.7-3.3-4.1c-1-1.3-2.1-2.5-3.1-3.7c-0.2-0.3-0.4-0.5-0.6-0.8c-1-1.1-1.9-2.3-2.9-3.4
				C236.6-103.4,93.7,4.2,89.7,141c-2.2-15-3.3-30.4-3.3-46c0-154.4,109.6-283.1,255.3-312.7c3.2-0.7,6.6-0.5,9.7,0.4
				c13.6,4,40.6,14.9,56.9,42.2C399.9-167.3,391.3-153.8,385.4-130.2z"/>
			<path fill="#A4CC5F" stroke="#000000" stroke-width="10" stroke-miterlimit="10" d="M436.6,9.3c0,4-0.7,7.7-2.1,11.2
				c-2.1,5.6-5.8,10.4-10.5,13.8c-3.2,2.4-6.8,4.1-10.7,5.1c-2.5,0.6-5.1,1-7.8,1c-4.3,0-8.5-0.9-12.2-2.5
				c-4.2-1.8-7.8-4.4-10.8-7.7c-3.7-4.1-6.4-9.2-7.5-14.8c-0.4-2-0.6-4-0.6-6.1c0-12.9,7.8-24,19-28.7c2-0.8,4.1-1.5,6.3-1.9
				c1.9-0.4,3.8-0.5,5.8-0.5c4.2,0,8.2,0.8,11.8,2.3C428.6-15,436.6-3.8,436.6,9.3z"/>
			
				<path fill="none" stroke="#000000" stroke-width="10" stroke-linecap="round" stroke-linejoin="round" stroke-miterlimit="10" d="
				M646.2,151.2c0,1.5-0.2,3-0.5,4.5c-1,4.5-3.4,8.5-6.7,11.4c-1.9,1.7-4.1,3-6.4,3.9c-0.7,0.3-1.5,0.5-2.2,0.7
				c-1.7,0.5-3.5,0.7-5.3,0.7c-2.9,0-5.7-0.6-8.3-1.7c-3.7-1.6-6.9-4.2-9.2-7.5c-2.3-3.4-3.7-7.5-3.7-11.9c0-0.5,0-1,0.1-1.5
				c0.8-10.6,9.3-19,19.9-19.6c0.4,0,0.8,0,1.1,0c4.6,0,8.8,1.4,12.3,3.9C642.7,137.8,646.2,144.1,646.2,151.2z"/>
			
				<path fill="none" stroke="#000000" stroke-width="10" stroke-linecap="round" stroke-linejoin="round" stroke-miterlimit="10" d="
				M424,193.3h-41.6L389.9,85l3.3-47.1c3.8,1.6,7.9,2.5,12.2,2.5c2.7,0,5.3-0.3,7.8-1l5.4,77.5L424,193.3z"/>
			
				<polygon fill="none" stroke="#000000" stroke-width="10" stroke-linecap="round" stroke-linejoin="round" stroke-miterlimit="10" points="
				359,193.3 344.7,256.1 230.6,256.1 261.7,193.3 			"/>
			
				<polygon fill="none" stroke="#000000" stroke-width="10" stroke-linecap="round" stroke-linejoin="round" stroke-miterlimit="10" points="
				580,256.1 467.6,256.1 453.3,193.3 550.3,193.3 			"/>
			
				<polygon fill="none" stroke="#000000" stroke-width="10" stroke-linecap="round" stroke-linejoin="round" stroke-miterlimit="10" points="
				467.6,256.1 344.7,256.1 359,193.3 453.3,193.3 			"/>
			
				<polygon fill="none" stroke="#000000" stroke-width="10" stroke-linecap="round" stroke-linejoin="round" stroke-miterlimit="10" points="
				481.9,319 330.4,319 344.7,256.1 467.6,256.1 			"/>
			
				<polygon fill="none" stroke="#000000" stroke-width="10" stroke-linecap="round" stroke-linejoin="round" stroke-miterlimit="10" points="
				344.7,256.1 330.4,319 199.4,319 230.6,256.1 			"/>
			
				<polygon fill="none" stroke="#000000" stroke-width="10" stroke-linecap="round" stroke-linejoin="round" stroke-miterlimit="10" points="
				609.7,319 481.9,319 467.6,256.1 580,256.1 			"/>
			
				<line fill="none" stroke="#000000" stroke-width="10" stroke-linecap="round" stroke-linejoin="round" stroke-miterlimit="10" x1="230.6" y1="256.1" x2="230.5" y2="256.1"/>
			
				<circle fill="none" stroke="#000000" stroke-width="10" stroke-linecap="round" stroke-linejoin="round" stroke-miterlimit="10" cx="195.4" cy="33.1" r="27.2"/>
			
				<circle fill="none" stroke="#000000" stroke-width="10" stroke-linecap="round" stroke-linejoin="round" stroke-miterlimit="10" cx="554.5" cy="-62.6" r="32.4"/>
			
				<circle fill="none" stroke="#000000" stroke-width="10" stroke-linecap="round" stroke-linejoin="round" stroke-miterlimit="10" cx="100" cy="14.8" r="32.4"/>
			
				<polygon fill="none" stroke="#000000" stroke-width="10" stroke-linecap="round" stroke-linejoin="round" stroke-miterlimit="10" points="
				434.7,391.4 374.3,391.4 379.4,319 429.6,319 			"/>
			
				<path fill="none" stroke="#000000" stroke-width="10" stroke-linecap="round" stroke-linejoin="round" stroke-miterlimit="10" d="
				M641.6,391.4h-34l9.1-220.8c2.5,1.1,5.4,1.7,8.3,1.7c1.8,0,3.6-0.2,5.3-0.7c0.8-0.2,1.5-0.4,2.2-0.7L641.6,391.4z"/>
			<line fill="none" stroke="#000000" stroke-width="10" stroke-miterlimit="10" x1="120.8" y1="391.4" x2="671.2" y2="391.4"/>
			<path fill="#62AC3C" d="M561.4,130l-47.2-32.9c9.4-15.6,10.4-32.9,6.9-49.7c5.4,3.7,10.8,8,16.1,12.9
				C584,103.3,561.4,130,561.4,130z"/>
			<path fill="#A4CC5F" d="M514.2,97.1L424,34.3c4.7-3.5,8.4-8.3,10.5-13.8c0,0,44-2.5,86.6,27C524.6,64.3,523.6,81.6,514.2,97.1z"
				/>
			
				<path fill="#A4CC5F" stroke="#000000" stroke-width="10" stroke-linecap="round" stroke-linejoin="round" stroke-miterlimit="10" d="
				M435-184.9L417.2-19.6c-3.6-1.5-7.6-2.3-11.8-2.3c-2,0-3.9,0.2-5.8,0.5c-0.5-0.8-1.5-2.6-2.9-5.4c-7.2-14.5-23.4-54.5-11.3-103.4
				c5.8-23.6,14.5-37.2,22.9-44.9C421.9-187.5,435-184.9,435-184.9z"/>
			
				<path fill="#A4CC5F" stroke="#000000" stroke-width="10" stroke-linecap="round" stroke-linejoin="round" stroke-miterlimit="10" d="
				M382.4,30.2c0,0-5.7,10.2-17.3,23.1c-14.6,16.2-38.8,36.5-73,45.7C230.8,115.5,220.3,82,220.3,82L347,28.8l26.5-11.1
				c0.5-0.8,0.9-1.5,1.3-2.3C376,21,378.7,26.1,382.4,30.2z"/>
			
				<path fill="none" stroke="#000000" stroke-width="10" stroke-linecap="round" stroke-linejoin="round" stroke-miterlimit="10" d="
				M722,228L639,167c3.3-2.9,5.7-6.9,6.7-11.4c0,0,30.8,3.2,51.7,19.3C734.4,200.6,722,228,722,228z"/>
			
				<path fill="none" stroke="#000000" stroke-width="10" stroke-linecap="round" stroke-linejoin="round" stroke-miterlimit="10" d="
				M668.5,36.3L637.3,134c-3.5-2.5-7.7-3.9-12.3-3.9c-0.4,0-0.8,0-1.1,0c-1.2-6.6-5.3-32.1,2.2-53.6
				C638.6,33.3,668.5,36.3,668.5,36.3z"/>
			
				<path fill="none" stroke="#000000" stroke-width="10" stroke-linecap="round" stroke-linejoin="round" stroke-miterlimit="10" d="
				M607.6,163.1c-5,4.5-24.8,21-47,25.7c-43.5,11.5-56.4-15.6-56.4-15.6l99.7-23.6c0,0.5-0.1,1-0.1,1.5
				C603.9,155.6,605.2,159.7,607.6,163.1z"/>
			
				<path fill="none" stroke="#000000" stroke-width="10" stroke-linecap="round" stroke-linejoin="round" stroke-miterlimit="10" d="
				M186.3,391.4c0,0,7.5-144.8-18.1-224.8"/>
			
				<path fill="none" stroke="#000000" stroke-width="10" stroke-linecap="round" stroke-linejoin="round" stroke-miterlimit="10" d="
				M183.5,251.2c0,0-45.4-28-51.1-62.7s26.8-70.1,40.3-88.2c0,0,51.4,48.3,47.6,88.2S189.1,245.6,183.5,251.2z"/>
			
				<path fill="none" stroke="#000000" stroke-width="10" stroke-linecap="round" stroke-linejoin="round" stroke-miterlimit="10" d="
				M561.4,130L424,34.3c4.7-3.5,8.4-8.3,10.5-13.8c0,0,56-3.2,102.7,39.8S561.4,130,561.4,130z"/>
		</g>
		<g>
			<path d="M133.3,454v35h-12.5V387.9h12.5v53.5h15v-35.1h12.5V489h-12.5v-35H133.3z"/>
			<path d="M184.5,489H172v-82.7h12.5V489z"/>
			<path d="M234.8,469.2c0,5.5-1.9,10.1-5.7,14c-3.8,3.9-8.4,5.8-13.9,5.8h-19.6v-82.7h19.6c5.5,0,10.1,1.9,13.9,5.8
				c3.8,3.9,5.7,8.5,5.7,13.9V469.2z M208.1,476.7h7.5c2,0,3.7-0.7,5-2.1c1.4-1.4,2-3.1,2-5v-43.3c0-2-0.7-3.7-2.1-5.1
				c-1.4-1.4-3-2.1-5-2.1h-7.5V476.7z"/>
			<path d="M265.4,406.3c7,0,12.1,1.9,15.3,5.7c2.9,3.3,4.3,8,4.3,14v12c0,5.9-2.2,10.8-6.7,14.8l9.2,36.1h-13.5l-7.6-31.1
				c-0.4,0-0.7,0-1.1,0h-7.2V489h-12.5v-82.7H265.4z M272.9,426.3c0-4.8-2.4-7.2-7.1-7.2h-7.5v26.5h7.5c2,0,3.7-0.7,5-2.1
				s2.1-3.1,2.1-5.1V426.3z"/>
			<path d="M315.9,405.3c5.5,0,10.2,1.9,14,5.8c3.8,3.9,5.8,8.5,5.8,14v45.1c0,5.5-1.9,10.2-5.8,14c-3.9,3.8-8.5,5.8-14,5.8
				c-5.5,0-10.2-1.9-14-5.8c-3.8-3.9-5.7-8.5-5.7-14v-45.1c0-5.5,1.9-10.2,5.8-14C305.8,407.2,310.5,405.3,315.9,405.3z
				 M322.7,424.8c0-2-0.7-3.7-2.1-5s-3.1-2.1-5-2.1s-3.7,0.7-5.1,2.1c-1.4,1.4-2.1,3.1-2.1,5v45.3c0,2,0.7,3.7,2.1,5
				c1.4,1.4,3.1,2.1,5.1,2.1s3.7-0.7,5-2.1s2.1-3.1,2.1-5V424.8z"/>
			<path d="M346.6,489v-82.7h35.5v12.5h-23v22.6h16.8v12.5h-16.8v22.6h23V489H346.6z"/>
			<path d="M410.5,490.1c-5.5,0-10.2-1.9-14-5.8c-3.9-3.8-5.8-8.5-5.8-14v-45.1c0-5.5,1.9-10.2,5.8-14c3.9-3.8,8.5-5.8,14-5.8
				c5.5,0,10.2,1.9,14,5.8s5.7,8.5,5.7,14v9.4h-12.9v-9.7c0-2-0.7-3.7-2.1-5.1c-1.4-1.4-3.1-2.1-5.1-2.1s-3.7,0.7-5,2.1
				c-1.4,1.4-2.1,3.1-2.1,5.1v45.3c0,2,0.7,3.7,2.1,5s3.1,2.1,5,2.1s3.7-0.7,5.1-2.1c1.4-1.4,2.1-3.1,2.1-5v-11.4h12.9v11.5
				c0,5.5-1.9,10.2-5.8,14C420.6,488.2,415.9,490.1,410.5,490.1z"/>
			<path d="M460,405.3c5.5,0,10.2,1.9,14,5.8c3.8,3.9,5.8,8.5,5.8,14v45.1c0,5.5-1.9,10.2-5.8,14c-3.9,3.8-8.5,5.8-14,5.8
				c-5.5,0-10.2-1.9-14-5.8c-3.8-3.9-5.7-8.5-5.7-14v-45.1c0-5.5,1.9-10.2,5.8-14C450,407.2,454.6,405.3,460,405.3z M466.8,424.8
				c0-2-0.7-3.7-2.1-5c-1.4-1.4-3.1-2.1-5-2.1s-3.7,0.7-5.1,2.1c-1.4,1.4-2.1,3.1-2.1,5v45.3c0,2,0.7,3.7,2.1,5
				c1.4,1.4,3.1,2.1,5.1,2.1s3.7-0.7,5-2.1c1.4-1.4,2.1-3.1,2.1-5V424.8z"/>
			<path d="M501.6,418.9h-13.3v-12.5h38.9v12.5h-13.2V489h-12.5V418.9z"/>
			<path d="M537.3,489v-82.7h35.5v12.5h-23v22.6h16.8v12.5h-16.8v22.6h23V489H537.3z"/>
			<path d="M601.2,490.1c-5.5,0-10.2-1.9-14-5.8c-3.8-3.8-5.8-8.5-5.8-14v-45.1c0-5.5,1.9-10.2,5.8-14c3.9-3.8,8.5-5.8,14-5.8
				c5.5,0,10.2,1.9,14,5.8s5.7,8.5,5.7,14v9.4H608v-9.7c0-2-0.7-3.7-2.1-5.1c-1.4-1.4-3.1-2.1-5.1-2.1s-3.7,0.7-5,2.1
				c-1.4,1.4-2.1,3.1-2.1,5.1v45.3c0,2,0.7,3.7,2.1,5s3.1,2.1,5,2.1s3.7-0.7,5.1-2.1c1.4-1.4,2.1-3.1,2.1-5v-11.4h12.9v11.5
				c0,5.5-1.9,10.2-5.8,14C611.3,488.2,606.6,490.1,601.2,490.1z"/>
			<path d="M643.6,454v35h-12.5v-82.7h12.5v35.1h15v-50h12.5V489h-12.5v-35H643.6z"/>
		</g>
	</g>
</g>
<g id="Layer_3">
	<rect y="0" fill="#FFFFFF" width="792" height="292.5"/>
	<g>
		
			<use xlink:href="#Logo"  width="668" height="614.5" x="-334" y="-307.2" transform="matrix(0.4095 0 0 -0.4095 174.7666 142.133)" overflow="visible"/>
		<g>
			<path d="M276.5,234.6v32.9h-15l3.3-91.3h11.7v46.7h14.1v-29.2l11.7,9.3v64.5h-11.7v-32.9H276.5z"/>
			<path d="M324.5,267.5h-11.7v-77.6h11.7V267.5z"/>
			<path d="M371.7,248.9c0,5.1-1.8,9.5-5.4,13.1c-3.6,3.6-7.9,5.4-13,5.4h-18.4v-77.6h18.4c5.1,0,9.5,1.8,13,5.4
				c3.6,3.6,5.4,8,5.4,13.1V248.9z M346.6,255.9h7.1c1.9,0,3.4-0.7,4.7-2c1.3-1.3,1.9-2.9,1.9-4.7v-40.6c0-1.9-0.6-3.4-1.9-4.8
				c-1.3-1.3-2.9-2-4.7-2h-7.1V255.9z"/>
			<path d="M400.4,189.9c6.5,0,11.3,1.8,14.4,5.4c2.7,3.1,4,7.5,4,13.1v11.3c0,5.5-2.1,10.1-6.3,13.9l8.7,33.9h-12.7l-7.1-29.2
				c-0.3,0-0.7,0-1.1,0h-6.7v29.2H382v-77.6H400.4z M407.4,208.6c0-4.5-2.2-6.7-6.7-6.7h-7.1v24.8h7.1c1.9,0,3.4-0.7,4.7-2
				c1.3-1.3,1.9-2.9,1.9-4.8V208.6z"/>
			<path d="M447.8,188.9c5.2,0,9.5,1.8,13.2,5.4c3.6,3.6,5.4,8,5.4,13.1v42.3c0,5.2-1.8,9.5-5.4,13.2c-3.6,3.6-8,5.4-13.1,5.4
				c-5.2,0-9.5-1.8-13.1-5.4c-3.6-3.6-5.4-8-5.4-13.1v-42.3c0-5.2,1.8-9.5,5.4-13.2C438.3,190.7,442.7,188.9,447.8,188.9z
				 M454.1,207.3c0-1.9-0.6-3.4-1.9-4.7c-1.3-1.3-2.9-2-4.7-2s-3.4,0.7-4.8,2c-1.3,1.3-2,2.9-2,4.7v42.5c0,1.9,0.7,3.4,2,4.7
				c1.3,1.3,2.9,1.9,4.8,1.9s3.4-0.6,4.7-1.9s1.9-2.9,1.9-4.7V207.3z"/>
			<path d="M476.6,267.5v-77.6h33.3v11.8h-21.6v21.2h15.8v11.8h-15.8v21.2h21.6v11.8H476.6z"/>
			<path d="M536.5,268.5c-5.2,0-9.5-1.8-13.2-5.4c-3.6-3.6-5.4-8-5.4-13.1v-42.3c0-5.2,1.8-9.5,5.4-13.2c3.6-3.6,8-5.4,13.1-5.4
				c5.2,0,9.5,1.8,13.1,5.4s5.4,8,5.4,13.1v8.9h-12.1v-9.1c0-1.9-0.7-3.4-2-4.8c-1.3-1.3-2.9-2-4.8-2s-3.4,0.7-4.7,2
				c-1.3,1.3-1.9,2.9-1.9,4.8v42.5c0,1.9,0.6,3.4,1.9,4.7s2.9,1.9,4.7,1.9s3.4-0.6,4.8-1.9c1.3-1.3,2-2.9,2-4.7v-10.7H555V250
				c0,5.2-1.8,9.5-5.4,13.1C545.9,266.7,541.6,268.5,536.5,268.5z"/>
			<path d="M582.9,188.9c5.2,0,9.5,1.8,13.2,5.4c3.6,3.6,5.4,8,5.4,13.1v42.3c0,5.2-1.8,9.5-5.4,13.2c-3.6,3.6-8,5.4-13.1,5.4
				c-5.2,0-9.5-1.8-13.1-5.4c-3.6-3.6-5.4-8-5.4-13.1v-42.3c0-5.2,1.8-9.5,5.4-13.2C573.5,190.7,577.9,188.9,582.9,188.9z
				 M589.3,207.3c0-1.9-0.7-3.4-2-4.7c-1.3-1.3-2.9-2-4.7-2c-1.9,0-3.4,0.7-4.8,2c-1.3,1.3-2,2.9-2,4.7v42.5c0,1.9,0.7,3.4,2,4.7
				c1.3,1.3,2.9,1.9,4.8,1.9c1.9,0,3.4-0.6,4.7-1.9c1.3-1.3,2-2.9,2-4.7V207.3z"/>
			<path d="M622,201.7h-12.4v-11.8h36.5v11.8h-12.4v65.8H622V201.7z"/>
			<path d="M655.5,267.5v-77.6h33.3v11.8h-21.6v21.2H683v11.8h-15.8v21.2h21.6v11.8H655.5z"/>
			<path d="M715.4,268.5c-5.2,0-9.5-1.8-13.2-5.4c-3.6-3.6-5.4-8-5.4-13.1v-42.3c0-5.2,1.8-9.5,5.4-13.2c3.6-3.6,8-5.4,13.1-5.4
				c5.2,0,9.5,1.8,13.1,5.4s5.4,8,5.4,13.1v8.9h-12.1v-9.1c0-1.9-0.7-3.4-2-4.8c-1.3-1.3-2.9-2-4.8-2s-3.4,0.7-4.7,2
				c-1.3,1.3-1.9,2.9-1.9,4.8v42.5c0,1.9,0.6,3.4,1.9,4.7s2.9,1.9,4.7,1.9s3.4-0.6,4.8-1.9c1.3-1.3,2-2.9,2-4.7v-10.7h12.1V250
				c0,5.2-1.8,9.5-5.4,13.1C724.8,266.7,720.5,268.5,715.4,268.5z"/>
			<path d="M755.2,234.6v32.9h-11.7v-77.6h11.7v32.9h14.1v-46.9H781v91.6h-11.7v-32.9H755.2z"/>
		</g>
	</g>
</g>
<g id="Layer_2" display="none">
	<g display="inline">
		<g>
			<path fill="#FFFFFF" d="M-273.5,101.4c0,134.4-83.1,249.4-200.8,296.4h-236.4c-104-41.5-181-136.2-197.5-250.4
				C-904.3,10.6-761.4-97-695-21.5c1,1.1,2,2.2,2.9,3.4c0.2,0.2,0.4,0.5,0.7,0.8c1,1.2,2.1,2.5,3.1,3.7c1.1,1.3,2.2,2.7,3.4,4.1
				c4.7,5.8,9.4,11.8,14.1,18c0.6,0.8,1.2,1.6,1.8,2.4c0.6,0.8,1.2,1.6,1.8,2.4c1.2,1.6,2.4,3.2,3.6,4.8c2,2.7,4,5.3,6,8.1
				c0.4,0.6,0.8,1.1,1.3,1.7c1.1,1.5,2.2,3,3.3,4.5l20.3,27.5c8,10.7,16.2,21.3,24.8,31.7v0c1.1,1.3,2.2,2.6,3.3,3.9
				c8.1,9.7,16.6,19.1,25.5,28c40.2,40.5,88.6,70.6,152.8,68.3c136.8-5,66.9-308.2,66.9-308.2C-306.2-59.6-273.5,17.1-273.5,101.4z"
				/>
			<path fill="#B5B5B5" d="M-426.6,191.6c-78.3,2.9-133.1-42.7-178.2-96.3c38.3,30.6,95.3,45.2,117.9,12.8c1.1-1.5,2.1-3.1,3.1-4.6
				l47.2,32.9c0,0,22.6-26.8-24.1-69.7c-5.3-4.9-10.7-9.1-16.1-12.9c-5.8-28-23.9-54.7-36.2-70.3c-15.4-19.6-26.6-42.3-32.3-66.6
				c-15.3-65.9,17.3-102.9,33-116.3c4.5-3.9,10.7-5.1,16.4-3.3c52.7,16.7,99.4,46.8,136.3,86.1
				C-359.6-116.6-289.8,186.6-426.6,191.6z"/>
			<path fill="#B5B5B5" d="M-612.6-123.8c-12.1,48.9,4.1,88.9,11.3,103.4c-1.1,2.4-2.2,4.8-3.4,7.3c-11.2,4.7-19,15.8-19,28.7
				c0,2.1,0.2,4.2,0.6,6.1c-0.4,0.8-0.9,1.5-1.3,2.3L-651,35.2c-1.9-2.5-3.7-5.1-5.6-7.6c-0.4-0.6-0.8-1.1-1.3-1.7
				c-2-2.7-4-5.4-6-8.1c-1.2-1.6-2.4-3.2-3.6-4.8c-0.6-0.8-1.2-1.6-1.8-2.4c-0.6-0.8-1.2-1.6-1.8-2.4c-4.7-6.2-9.4-12.3-14.1-18
				c-1.1-1.4-2.2-2.7-3.3-4.1c-1-1.3-2.1-2.5-3.1-3.7c-0.2-0.3-0.4-0.5-0.6-0.8c-1-1.1-1.9-2.3-2.9-3.4
				C-761.4-97-904.3,10.6-908.3,147.4c-2.2-15-3.3-30.4-3.3-46c0-154.4,109.6-283.1,255.3-312.7c3.2-0.7,6.6-0.5,9.7,0.4
				c13.6,4,40.6,14.9,56.9,42.2C-598.1-160.9-606.7-147.4-612.6-123.8z"/>
			
				<path fill="#B5B5B5" stroke="#000000" stroke-width="10" stroke-linecap="round" stroke-linejoin="round" stroke-miterlimit="10" d="
				M-561.4,15.7c0,4-0.7,7.7-2.1,11.2c-2.1,5.6-5.8,10.4-10.5,13.8c-3.2,2.4-6.8,4.1-10.7,5.1c-2.5,0.6-5.1,1-7.8,1
				c-4.3,0-8.5-0.9-12.2-2.5c-4.2-1.8-7.8-4.4-10.8-7.7c-3.7-4.1-6.4-9.2-7.5-14.8c-0.4-2-0.6-4-0.6-6.1c0-12.9,7.8-24,19-28.7
				c2-0.8,4.1-1.5,6.3-1.9c1.9-0.4,3.8-0.5,5.8-0.5c4.2,0,8.2,0.8,11.8,2.3C-569.4-8.6-561.4,2.6-561.4,15.7z"/>
			
				<path fill="none" stroke="#000000" stroke-width="10" stroke-linecap="round" stroke-linejoin="round" stroke-miterlimit="10" d="
				M-351.8,157.6c0,1.5-0.2,3-0.5,4.5c-1,4.5-3.4,8.5-6.7,11.4c-1.9,1.7-4.1,3-6.4,3.9c-0.7,0.3-1.5,0.5-2.2,0.7
				c-1.7,0.5-3.5,0.7-5.3,0.7c-2.9,0-5.7-0.6-8.3-1.7c-3.7-1.6-6.9-4.2-9.2-7.5c-2.3-3.4-3.7-7.5-3.7-11.9c0-0.5,0-1,0.1-1.5
				c0.8-10.6,9.3-19,19.9-19.6c0.4,0,0.8,0,1.1,0c4.6,0,8.8,1.4,12.3,3.9C-355.3,144.2-351.8,150.5-351.8,157.6z"/>
			
				<path fill="none" stroke="#000000" stroke-width="10" stroke-linecap="round" stroke-linejoin="round" stroke-miterlimit="10" d="
				M-574,199.7h-41.6l7.5-108.3l3.3-47.1c3.8,1.6,7.9,2.5,12.2,2.5c2.7,0,5.3-0.3,7.8-1l5.4,77.5L-574,199.7z"/>
			
				<polygon fill="none" stroke="#000000" stroke-width="10" stroke-linecap="round" stroke-linejoin="round" stroke-miterlimit="10" points="
				-639,199.7 -653.3,262.5 -767.4,262.5 -736.3,199.7 			"/>
			
				<polygon fill="none" stroke="#000000" stroke-width="10" stroke-linecap="round" stroke-linejoin="round" stroke-miterlimit="10" points="
				-418,262.5 -530.4,262.5 -544.7,199.7 -447.7,199.7 			"/>
			
				<polygon fill="none" stroke="#000000" stroke-width="10" stroke-linecap="round" stroke-linejoin="round" stroke-miterlimit="10" points="
				-530.4,262.5 -653.3,262.5 -639,199.7 -544.7,199.7 			"/>
			
				<polygon fill="none" stroke="#000000" stroke-width="10" stroke-linecap="round" stroke-linejoin="round" stroke-miterlimit="10" points="
				-516.1,325.4 -667.6,325.4 -653.3,262.5 -530.4,262.5 			"/>
			
				<polygon fill="none" stroke="#000000" stroke-width="10" stroke-linecap="round" stroke-linejoin="round" stroke-miterlimit="10" points="
				-653.3,262.5 -667.6,325.4 -798.6,325.4 -767.4,262.5 			"/>
			
				<polygon fill="none" stroke="#000000" stroke-width="10" stroke-linecap="round" stroke-linejoin="round" stroke-miterlimit="10" points="
				-388.3,325.4 -516.1,325.4 -530.4,262.5 -418,262.5 			"/>
			
				<line fill="none" stroke="#000000" stroke-width="10" stroke-linecap="round" stroke-linejoin="round" stroke-miterlimit="10" x1="-767.4" y1="262.5" x2="-767.4" y2="262.5"/>
			
				<circle fill="none" stroke="#000000" stroke-width="10" stroke-linecap="round" stroke-linejoin="round" stroke-miterlimit="10" cx="-802.6" cy="39.5" r="27.2"/>
			
				<circle fill="none" stroke="#000000" stroke-width="10" stroke-linecap="round" stroke-linejoin="round" stroke-miterlimit="10" cx="-443.5" cy="-56.2" r="32.4"/>
			
				<circle fill="none" stroke="#000000" stroke-width="10" stroke-linecap="round" stroke-linejoin="round" stroke-miterlimit="10" cx="-898" cy="21.2" r="32.4"/>
			
				<polygon fill="none" stroke="#000000" stroke-width="10" stroke-linecap="round" stroke-linejoin="round" stroke-miterlimit="10" points="
				-563.3,397.8 -623.7,397.8 -618.6,325.4 -568.4,325.4 			"/>
			
				<path fill="none" stroke="#000000" stroke-width="10" stroke-linecap="round" stroke-linejoin="round" stroke-miterlimit="10" d="
				M-356.4,397.8h-34l9.1-220.8c2.5,1.1,5.4,1.7,8.3,1.7c1.8,0,3.6-0.2,5.3-0.7c0.8-0.2,1.5-0.4,2.2-0.7L-356.4,397.8z"/>
			<line fill="none" stroke="#000000" stroke-width="10" stroke-miterlimit="10" x1="-877.2" y1="397.8" x2="-326.8" y2="397.8"/>
			<path fill="#FFFFFF" d="M-436.6,136.4l-47.2-32.9c9.4-15.6,10.4-32.9,6.9-49.7c5.4,3.7,10.8,8,16.1,12.9
				C-414,109.7-436.6,136.4-436.6,136.4z"/>
			<path fill="#B5B5B5" d="M-483.8,103.5L-574,40.7c4.7-3.5,8.4-8.3,10.5-13.8c0,0,44-2.5,86.6,27C-473.4,70.7-474.4,88-483.8,103.5
				z"/>
			
				<path fill="#B5B5B5" stroke="#000000" stroke-width="10" stroke-linecap="round" stroke-linejoin="round" stroke-miterlimit="10" d="
				M-563-178.5l-17.7,165.3c-3.6-1.5-7.6-2.3-11.8-2.3c-2,0-3.9,0.2-5.8,0.5c-0.5-0.8-1.5-2.6-2.9-5.4
				c-7.2-14.5-23.4-54.5-11.3-103.4c5.8-23.6,14.5-37.2,22.9-44.9C-576.1-181.1-563-178.5-563-178.5z"/>
			
				<path fill="#B5B5B5" stroke="#000000" stroke-width="10" stroke-linecap="round" stroke-linejoin="round" stroke-miterlimit="10" d="
				M-615.6,36.6c0,0-5.7,10.2-17.3,23.1c-14.6,16.2-38.8,36.5-73,45.7c-61.3,16.5-71.8-16.9-71.8-16.9L-651,35.2l26.5-11.1
				c0.5-0.8,0.9-1.5,1.3-2.3C-622,27.5-619.3,32.5-615.6,36.6z"/>
			
				<path fill="none" stroke="#000000" stroke-width="10" stroke-linecap="round" stroke-linejoin="round" stroke-miterlimit="10" d="
				M-276,234.4l-83.1-61c3.3-2.9,5.7-6.9,6.7-11.4c0,0,30.8,3.2,51.7,19.3C-263.6,207-276,234.4-276,234.4z"/>
			
				<path fill="none" stroke="#000000" stroke-width="10" stroke-linecap="round" stroke-linejoin="round" stroke-miterlimit="10" d="
				M-329.5,42.7l-31.2,97.7c-3.5-2.5-7.7-3.9-12.3-3.9c-0.4,0-0.8,0-1.1,0c-1.2-6.6-5.3-32.1,2.2-53.6
				C-359.4,39.7-329.5,42.7-329.5,42.7z"/>
			
				<path fill="none" stroke="#000000" stroke-width="10" stroke-linecap="round" stroke-linejoin="round" stroke-miterlimit="10" d="
				M-390.4,169.5c-5,4.5-24.8,21-47,25.7c-43.5,11.5-56.4-15.6-56.4-15.6L-394,156c0,0.5-0.1,1-0.1,1.5
				C-394.1,162-392.7,166.1-390.4,169.5z"/>
			
				<path fill="none" stroke="#000000" stroke-width="10" stroke-linecap="round" stroke-linejoin="round" stroke-miterlimit="10" d="
				M-811.7,397.8c0,0,7.5-144.8-18.1-224.8"/>
			
				<path fill="none" stroke="#000000" stroke-width="10" stroke-linecap="round" stroke-linejoin="round" stroke-miterlimit="10" d="
				M-814.5,257.6c0,0-45.4-28-51.1-62.7s26.8-70.1,40.3-88.2c0,0,51.4,48.3,47.6,88.2S-808.9,252-814.5,257.6z"/>
			
				<path fill="none" stroke="#000000" stroke-width="10" stroke-linecap="round" stroke-linejoin="round" stroke-miterlimit="10" d="
				M-436.6,136.4L-574,40.7c4.7-3.5,8.4-8.3,10.5-13.8c0,0,56-3.2,102.7,39.8S-436.6,136.4-436.6,136.4z"/>
		</g>
		<g>
			<path d="M-864.7,460.4v35h-12.5V394.3h12.5v53.5h15v-35.1h12.5v82.7h-12.5v-35H-864.7z"/>
			<path d="M-813.5,495.4H-826v-82.7h12.5V495.4z"/>
			<path d="M-763.2,475.6c0,5.5-1.9,10.1-5.7,14c-3.8,3.9-8.4,5.8-13.9,5.8h-19.6v-82.7h19.6c5.5,0,10.1,1.9,13.9,5.8
				c3.8,3.9,5.7,8.5,5.7,13.9V475.6z M-789.9,483.1h7.5c2,0,3.7-0.7,5-2.1c1.4-1.4,2-3.1,2-5v-43.3c0-2-0.7-3.7-2.1-5.1
				c-1.4-1.4-3-2.1-5-2.1h-7.5V483.1z"/>
			<path d="M-732.6,412.7c7,0,12.1,1.9,15.3,5.7c2.9,3.3,4.3,8,4.3,14v12c0,5.9-2.2,10.8-6.7,14.8l9.2,36.1h-13.5l-7.6-31.1
				c-0.4,0-0.7,0-1.1,0h-7.2v31.1h-12.5v-82.7H-732.6z M-725.1,432.7c0-4.8-2.4-7.2-7.1-7.2h-7.5v26.5h7.5c2,0,3.7-0.7,5-2.1
				s2.1-3.1,2.1-5.1V432.7z"/>
			<path d="M-682.1,411.7c5.5,0,10.2,1.9,14,5.8c3.8,3.9,5.8,8.5,5.8,14v45.1c0,5.5-1.9,10.2-5.8,14c-3.9,3.8-8.5,5.8-14,5.8
				c-5.5,0-10.2-1.9-14-5.8c-3.8-3.9-5.7-8.5-5.7-14v-45.1c0-5.5,1.9-10.2,5.8-14C-692.2,413.6-687.5,411.7-682.1,411.7z
				 M-675.3,431.2c0-2-0.7-3.7-2.1-5s-3.1-2.1-5-2.1s-3.7,0.7-5.1,2.1c-1.4,1.4-2.1,3.1-2.1,5v45.3c0,2,0.7,3.7,2.1,5
				c1.4,1.4,3.1,2.1,5.1,2.1s3.7-0.7,5-2.1s2.1-3.1,2.1-5V431.2z"/>
			<path d="M-651.4,495.4v-82.7h35.5v12.5h-23v22.6h16.8v12.5h-16.8v22.6h23v12.5H-651.4z"/>
			<path d="M-587.5,496.5c-5.5,0-10.2-1.9-14-5.8c-3.9-3.8-5.8-8.5-5.8-14v-45.1c0-5.5,1.9-10.2,5.8-14c3.9-3.8,8.5-5.8,14-5.8
				c5.5,0,10.2,1.9,14,5.8s5.7,8.5,5.7,14v9.4h-12.9v-9.7c0-2-0.7-3.7-2.1-5.1c-1.4-1.4-3.1-2.1-5.1-2.1s-3.7,0.7-5,2.1
				c-1.4,1.4-2.1,3.1-2.1,5.1v45.3c0,2,0.7,3.7,2.1,5s3.1,2.1,5,2.1s3.7-0.7,5.1-2.1c1.4-1.4,2.1-3.1,2.1-5v-11.4h12.9v11.5
				c0,5.5-1.9,10.2-5.8,14C-577.4,494.6-582.1,496.5-587.5,496.5z"/>
			<path d="M-538,411.7c5.5,0,10.2,1.9,14,5.8c3.8,3.9,5.8,8.5,5.8,14v45.1c0,5.5-1.9,10.2-5.8,14c-3.9,3.8-8.5,5.8-14,5.8
				c-5.5,0-10.2-1.9-14-5.8c-3.8-3.9-5.7-8.5-5.7-14v-45.1c0-5.5,1.9-10.2,5.8-14C-548,413.6-543.4,411.7-538,411.7z M-531.2,431.2
				c0-2-0.7-3.7-2.1-5c-1.4-1.4-3.1-2.1-5-2.1s-3.7,0.7-5.1,2.1c-1.4,1.4-2.1,3.1-2.1,5v45.3c0,2,0.7,3.7,2.1,5
				c1.4,1.4,3.1,2.1,5.1,2.1s3.7-0.7,5-2.1c1.4-1.4,2.1-3.1,2.1-5V431.2z"/>
			<path d="M-496.4,425.3h-13.3v-12.5h38.9v12.5h-13.2v70.1h-12.5V425.3z"/>
			<path d="M-460.7,495.4v-82.7h35.5v12.5h-23v22.6h16.8v12.5h-16.8v22.6h23v12.5H-460.7z"/>
			<path d="M-396.8,496.5c-5.5,0-10.2-1.9-14-5.8c-3.8-3.8-5.8-8.5-5.8-14v-45.1c0-5.5,1.9-10.2,5.8-14c3.9-3.8,8.5-5.8,14-5.8
				c5.5,0,10.2,1.9,14,5.8s5.7,8.5,5.7,14v9.4H-390v-9.7c0-2-0.7-3.7-2.1-5.1c-1.4-1.4-3.1-2.1-5.1-2.1s-3.7,0.7-5,2.1
				c-1.4,1.4-2.1,3.1-2.1,5.1v45.3c0,2,0.7,3.7,2.1,5s3.1,2.1,5,2.1s3.7-0.7,5.1-2.1c1.4-1.4,2.1-3.1,2.1-5v-11.4h12.9v11.5
				c0,5.5-1.9,10.2-5.8,14C-386.7,494.6-391.4,496.5-396.8,496.5z"/>
			<path d="M-354.4,460.4v35h-12.5v-82.7h12.5v35.1h15v-50h12.5v97.6h-12.5v-35H-354.4z"/>
		</g>
	</g>
</g>
</svg>
