<?xml version="1.0" encoding="UTF-8"?>
<svg xmlns="http://www.w3.org/2000/svg" version="1.1" viewBox="0 0 792 292.5">
  <defs>
    <style>
      .cls-1, .cls-2, .cls-3, .cls-4, .cls-5 {
        stroke: #000;
        stroke-width: 10px;
      }

      .cls-1, .cls-2, .cls-4 {
        stroke-linecap: round;
        stroke-linejoin: round;
      }

      .cls-1, .cls-6 {
        fill: #b5b5b5;
      }

      .cls-7 {
        fill: #fff;
      }

      .cls-8, .cls-3, .cls-4 {
        fill: #a4cc5f;
      }

      .cls-2, .cls-9, .cls-5 {
        fill: none;
      }

      .cls-3, .cls-5 {
        stroke-miterlimit: 10;
      }

      .cls-10, .cls-9 {
        display: none;
      }

      .cls-11 {
        fill: #62ac3c;
      }
    </style>
  </defs>
  <!-- Generator: Adobe Illustrator 28.6.0, SVG Export Plug-In . SVG Version: 1.2.0 Build 709)  -->
  <g>
    <g id="Capa_1">
      <g id="Layer_1" class="cls-10">
        <g>
          <g>
            <path class="cls-11" d="M724.5,95c0,134.4-83.1,249.4-200.8,296.4h-236.5c-104-41.5-181-136.2-197.5-250.4C93.7,4.2,236.6-103.4,303-27.9c1,1.1,2,2.2,2.9,3.4.2.2.4.5.7.8,1,1.2,2.1,2.5,3.1,3.7,1.1,1.3,2.2,2.7,3.4,4.1,4.7,5.8,9.4,11.8,14.1,18,.6.8,1.2,1.6,1.8,2.4.6.8,1.2,1.6,1.8,2.4,1.2,1.6,2.4,3.2,3.6,4.8,2,2.7,4,5.3,6,8.1.4.6.8,1.1,1.3,1.7,1.1,1.5,2.2,3,3.3,4.5l20.3,27.5c8,10.7,16.2,21.3,24.8,31.7h0c1.1,1.3,2.2,2.6,3.3,3.9,8.1,9.7,16.6,19.1,25.5,28,40.2,40.5,88.6,70.6,152.8,68.3,136.8-5,66.9-308.2,66.9-308.2,53.2,56.8,85.9,133.5,85.9,217.8Z"/>
            <path class="cls-8" d="M571.4,185.2c-78.3,2.9-133.1-42.7-178.2-96.3,38.3,30.6,95.3,45.2,117.9,12.8,1.1-1.5,2.1-3.1,3.1-4.6l47.2,32.9s22.6-26.8-24.1-69.7c-5.3-4.9-10.7-9.1-16.1-12.9-5.8-28-23.9-54.7-36.2-70.3-15.4-19.6-26.6-42.3-32.3-66.6-15.3-65.9,17.3-102.9,33-116.3,4.5-3.9,10.7-5.1,16.4-3.3,52.7,16.7,99.4,46.8,136.3,86.1,0,0,69.8,303.2-67,308.2Z"/>
            <path class="cls-8" d="M385.4-130.2c-12.1,48.9,4.1,88.9,11.3,103.4-1.1,2.4-2.2,4.8-3.4,7.3-11.2,4.7-19,15.8-19,28.7s.2,4.2.6,6.1c-.4.8-.9,1.5-1.3,2.3l-26.6,11.2c-1.9-2.5-3.7-5.1-5.6-7.6-.4-.6-.8-1.1-1.3-1.7-2-2.7-4-5.4-6-8.1-1.2-1.6-2.4-3.2-3.6-4.8s-1.2-1.6-1.8-2.4c-.6-.8-1.2-1.6-1.8-2.4-4.7-6.2-9.4-12.3-14.1-18-1.1-1.4-2.2-2.7-3.3-4.1-1-1.3-2.1-2.5-3.1-3.7-.2-.3-.4-.5-.6-.8-1-1.1-1.9-2.3-2.9-3.4C236.6-103.4,93.7,4.2,89.7,141c-2.2-15-3.3-30.4-3.3-46,0-154.4,109.6-283.1,255.3-312.7,3.2-.7,6.6-.5,9.7.4,13.6,4,40.6,14.9,56.9,42.2-8.4,7.8-17,21.3-22.9,44.9Z"/>
            <path class="cls-3" d="M436.6,9.3c0,4-.7,7.7-2.1,11.2-2.1,5.6-5.8,10.4-10.5,13.8-3.2,2.4-6.8,4.1-10.7,5.1-2.5.6-5.1,1-7.8,1-4.3,0-8.5-.9-12.2-2.5-4.2-1.8-7.8-4.4-10.8-7.7-3.7-4.1-6.4-9.2-7.5-14.8-.4-2-.6-4-.6-6.1,0-12.9,7.8-24,19-28.7,2-.8,4.1-1.5,6.3-1.9,1.9-.4,3.8-.5,5.8-.5,4.2,0,8.2.8,11.8,2.3,11.3,4.5,19.3,15.7,19.3,28.8Z"/>
            <path class="cls-2" d="M646.2,151.2c0,1.5-.2,3-.5,4.5-1,4.5-3.4,8.5-6.7,11.4-1.9,1.7-4.1,3-6.4,3.9-.7.3-1.5.5-2.2.7-1.7.5-3.5.7-5.3.7-2.9,0-5.7-.6-8.3-1.7-3.7-1.6-6.9-4.2-9.2-7.5-2.3-3.4-3.7-7.5-3.7-11.9s0-1,0-1.5c.8-10.6,9.3-19,19.9-19.6h1.1c4.6,0,8.8,1.4,12.3,3.9,5.4,3.7,8.9,10,8.9,17.1Z"/>
            <path class="cls-2" d="M424,193.3h-41.6l7.5-108.3,3.3-47.1c3.8,1.6,7.9,2.5,12.2,2.5s5.3-.3,7.8-1l5.4,77.5,5.4,76.4Z"/>
            <polygon class="cls-2" points="359 193.3 344.7 256.1 230.6 256.1 261.7 193.3 359 193.3"/>
            <polygon class="cls-2" points="580 256.1 467.6 256.1 453.3 193.3 550.3 193.3 580 256.1"/>
            <polygon class="cls-2" points="467.6 256.1 344.7 256.1 359 193.3 453.3 193.3 467.6 256.1"/>
            <polygon class="cls-2" points="481.9 319 330.4 319 344.7 256.1 467.6 256.1 481.9 319"/>
            <polygon class="cls-2" points="344.7 256.1 330.4 319 199.4 319 230.6 256.1 344.7 256.1"/>
            <polygon class="cls-2" points="609.7 319 481.9 319 467.6 256.1 580 256.1 609.7 319"/>
            <line class="cls-2" x1="230.6" y1="256.1" x2="230.5" y2="256.1"/>
            <circle class="cls-2" cx="195.4" cy="33.1" r="27.2"/>
            <circle class="cls-2" cx="554.5" cy="-62.6" r="32.4"/>
            <circle class="cls-2" cx="100" cy="14.8" r="32.4"/>
            <polygon class="cls-2" points="434.7 391.4 374.3 391.4 379.4 319 429.6 319 434.7 391.4"/>
            <path class="cls-2" d="M641.6,391.4h-34l9.1-220.8c2.5,1.1,5.4,1.7,8.3,1.7s3.6-.2,5.3-.7c.8-.2,1.5-.4,2.2-.7l9.1,220.5Z"/>
            <line class="cls-5" x1="120.8" y1="391.4" x2="671.2" y2="391.4"/>
            <path class="cls-11" d="M561.4,130l-47.2-32.9c9.4-15.6,10.4-32.9,6.9-49.7,5.4,3.7,10.8,8,16.1,12.9,46.8,43,24.2,69.7,24.2,69.7Z"/>
            <path class="cls-8" d="M514.2,97.1l-90.2-62.8c4.7-3.5,8.4-8.3,10.5-13.8,0,0,44-2.5,86.6,27,3.5,16.8,2.5,34.1-6.9,49.6Z"/>
            <path class="cls-4" d="M435-184.9l-17.8,165.3c-3.6-1.5-7.6-2.3-11.8-2.3s-3.9.2-5.8.5c-.5-.8-1.5-2.6-2.9-5.4-7.2-14.5-23.4-54.5-11.3-103.4,5.8-23.6,14.5-37.2,22.9-44.9,13.6-12.4,26.7-9.8,26.7-9.8Z"/>
            <path class="cls-4" d="M382.4,30.2s-5.7,10.2-17.3,23.1c-14.6,16.2-38.8,36.5-73,45.7-61.3,16.5-71.8-17-71.8-17l126.7-53.2,26.5-11.1c.5-.8.9-1.5,1.3-2.3,1.2,5.6,3.9,10.7,7.6,14.8Z"/>
            <path class="cls-2" d="M722,228l-83-61c3.3-2.9,5.7-6.9,6.7-11.4,0,0,30.8,3.2,51.7,19.3,37,25.7,24.6,53.1,24.6,53.1Z"/>
            <path class="cls-2" d="M668.5,36.3l-31.2,97.7c-3.5-2.5-7.7-3.9-12.3-3.9h-1.1c-1.2-6.6-5.3-32.1,2.2-53.6,12.5-43.2,42.4-40.2,42.4-40.2Z"/>
            <path class="cls-2" d="M607.6,163.1c-5,4.5-24.8,21-47,25.7-43.5,11.5-56.4-15.6-56.4-15.6l99.7-23.6c0,.5,0,1,0,1.5.1,4.5,1.4,8.6,3.8,12Z"/>
            <path class="cls-2" d="M186.3,391.4s7.5-144.8-18.1-224.8"/>
            <path class="cls-2" d="M183.5,251.2s-45.4-28-51.1-62.7,26.8-70.1,40.3-88.2c0,0,51.4,48.3,47.6,88.2s-31.2,57.1-36.8,62.7Z"/>
            <path class="cls-2" d="M561.4,130l-137.4-95.7c4.7-3.5,8.4-8.3,10.5-13.8,0,0,56-3.2,102.7,39.8,46.7,43,24.2,69.7,24.2,69.7Z"/>
          </g>
          <g>
            <path d="M133.3,454v35h-12.5v-101.1h12.5v53.5h15v-35.1h12.5v82.7h-12.5v-35h-15Z"/>
            <path d="M184.5,489h-12.5v-82.7h12.5v82.7Z"/>
            <path d="M234.8,469.2c0,5.5-1.9,10.1-5.7,14s-8.4,5.8-13.9,5.8h-19.6v-82.7h19.6c5.5,0,10.1,1.9,13.9,5.8,3.8,3.9,5.7,8.5,5.7,13.9v43.2ZM208.1,476.7h7.5c2,0,3.7-.7,5-2.1,1.4-1.4,2-3.1,2-5v-43.3c0-2-.7-3.7-2.1-5.1-1.4-1.4-3-2.1-5-2.1h-7.5v57.6h.1Z"/>
            <path d="M265.4,406.3c7,0,12.1,1.9,15.3,5.7,2.9,3.3,4.3,8,4.3,14v12c0,5.9-2.2,10.8-6.7,14.8l9.2,36.1h-13.5l-7.6-31.1h-8.3v31.2h-12.5v-82.7h19.8ZM272.9,426.3c0-4.8-2.4-7.2-7.1-7.2h-7.5v26.5h7.5c2,0,3.7-.7,5-2.1s2.1-3.1,2.1-5.1v-12.1Z"/>
            <path d="M315.9,405.3c5.5,0,10.2,1.9,14,5.8s5.8,8.5,5.8,14v45.1c0,5.5-1.9,10.2-5.8,14s-8.5,5.8-14,5.8-10.2-1.9-14-5.8-5.7-8.5-5.7-14v-45.1c0-5.5,1.9-10.2,5.8-14,3.8-3.9,8.5-5.8,13.9-5.8ZM322.7,424.8c0-2-.7-3.7-2.1-5s-3.1-2.1-5-2.1-3.7.7-5.1,2.1-2.1,3.1-2.1,5v45.3c0,2,.7,3.7,2.1,5,1.4,1.4,3.1,2.1,5.1,2.1s3.7-.7,5-2.1,2.1-3.1,2.1-5v-45.3Z"/>
            <path d="M346.6,489v-82.7h35.5v12.5h-23v22.6h16.8v12.5h-16.8v22.6h23v12.5h-35.5Z"/>
            <path d="M410.5,490.1c-5.5,0-10.2-1.9-14-5.8-3.9-3.8-5.8-8.5-5.8-14v-45.1c0-5.5,1.9-10.2,5.8-14s8.5-5.8,14-5.8,10.2,1.9,14,5.8,5.7,8.5,5.7,14v9.4h-12.9v-9.7c0-2-.7-3.7-2.1-5.1s-3.1-2.1-5.1-2.1-3.7.7-5,2.1c-1.4,1.4-2.1,3.1-2.1,5.1v45.3c0,2,.7,3.7,2.1,5s3.1,2.1,5,2.1,3.7-.7,5.1-2.1,2.1-3.1,2.1-5v-11.4h12.9v11.5c0,5.5-1.9,10.2-5.8,14-3.8,3.9-8.5,5.8-13.9,5.8Z"/>
            <path d="M460,405.3c5.5,0,10.2,1.9,14,5.8s5.8,8.5,5.8,14v45.1c0,5.5-1.9,10.2-5.8,14s-8.5,5.8-14,5.8-10.2-1.9-14-5.8-5.7-8.5-5.7-14v-45.1c0-5.5,1.9-10.2,5.8-14,3.9-3.9,8.5-5.8,13.9-5.8ZM466.8,424.8c0-2-.7-3.7-2.1-5-1.4-1.4-3.1-2.1-5-2.1s-3.7.7-5.1,2.1-2.1,3.1-2.1,5v45.3c0,2,.7,3.7,2.1,5,1.4,1.4,3.1,2.1,5.1,2.1s3.7-.7,5-2.1c1.4-1.4,2.1-3.1,2.1-5v-45.3Z"/>
            <path d="M501.6,418.9h-13.3v-12.5h38.9v12.5h-13.2v70.1h-12.5v-70.1h.1Z"/>
            <path d="M537.3,489v-82.7h35.5v12.5h-23v22.6h16.8v12.5h-16.8v22.6h23v12.5h-35.5Z"/>
            <path d="M601.2,490.1c-5.5,0-10.2-1.9-14-5.8-3.8-3.8-5.8-8.5-5.8-14v-45.1c0-5.5,1.9-10.2,5.8-14,3.9-3.8,8.5-5.8,14-5.8s10.2,1.9,14,5.8,5.7,8.5,5.7,14v9.4h-12.9v-9.7c0-2-.7-3.7-2.1-5.1-1.4-1.4-3.1-2.1-5.1-2.1s-3.7.7-5,2.1c-1.4,1.4-2.1,3.1-2.1,5.1v45.3c0,2,.7,3.7,2.1,5s3.1,2.1,5,2.1,3.7-.7,5.1-2.1c1.4-1.4,2.1-3.1,2.1-5v-11.4h12.9v11.5c0,5.5-1.9,10.2-5.8,14-3.8,3.9-8.5,5.8-13.9,5.8Z"/>
            <path d="M643.6,454v35h-12.5v-82.7h12.5v35.1h15v-50h12.5v97.6h-12.5v-35h-15Z"/>
          </g>
        </g>
      </g>
      <rect class="cls-11" x="16.3" y="249.4" width="759.3" height="10"/>
      <polygon class="cls-9" points="-288 -382.6 -14.5 -382.6 -14.5 -131.2 -288 -131.2 -288 -382.6"/>
      <g>
        <g>
          <path d="M93.4,183.9h19.1v-39.5l15.8,12.6v87.2h-15.8v-44.5h-19.1v-15.8Z"/>
          <path d="M158.3,244.2h-15.8v-104.9h15.8v104.9Z"/>
          <path d="M222.1,219.1c0,6.9-2.4,12.8-7.3,17.7-4.9,4.9-10.7,7.3-17.6,7.3h-24.9v-104.9h24.9c6.9,0,12.8,2.4,17.6,7.3,4.9,4.9,7.3,10.8,7.3,17.7v54.9ZM188.2,228.5h9.6c2.6,0,4.6-.9,6.4-2.7,1.8-1.8,2.6-3.9,2.6-6.4v-54.9c0-2.6-.8-4.6-2.6-6.5-1.8-1.8-3.9-2.7-6.4-2.7h-9.6v73.2Z"/>
          <path d="M260.9,139.3c8.8,0,15.3,2.4,19.5,7.3,3.7,4.2,5.4,10.1,5.4,17.7v15.3c0,7.4-2.8,13.7-8.5,18.8l11.8,45.8h-17.2l-9.6-39.5h-10.5v39.5h-15.7v-104.9h24.9ZM270.4,164.6c0-6.1-3-9.1-9.1-9.1h-9.6v33.5h9.6c2.6,0,4.6-.9,6.4-2.7,1.8-1.8,2.6-3.9,2.6-6.5v-15.3h.1Z"/>
          <path d="M325.1,137.9c7,0,12.8,2.4,17.9,7.3,4.9,4.9,7.3,10.8,7.3,17.7v57.2c0,7-2.4,12.8-7.3,17.9-4.9,4.9-10.8,7.3-17.7,7.3s-12.8-2.4-17.7-7.3c-4.9-4.9-7.3-10.8-7.3-17.7v-57.2c0-7,2.4-12.8,7.3-17.9,4.7-4.9,10.7-7.3,17.6-7.3ZM333.6,162.8c0-2.6-.8-4.6-2.6-6.4s-3.9-2.7-6.4-2.7-4.6.9-6.5,2.7c-1.8,1.8-2.7,3.9-2.7,6.4v57.5c0,2.6.9,4.6,2.7,6.4s3.9,2.6,6.5,2.6,4.6-.8,6.4-2.6,2.6-3.9,2.6-6.4v-57.5Z"/>
          <path class="cls-11" d="M364,244.2v-104.9h45v16h-29.2v28.7h21.4v16h-21.4v28.7h29.2v16h-45v-.3Z"/>
          <path d="M445,245.6c-7,0-12.8-2.4-17.9-7.3-4.9-4.9-7.3-10.8-7.3-17.7v-57.2c0-7,2.4-12.8,7.3-17.9,4.9-4.9,10.8-7.3,17.7-7.3s12.8,2.4,17.7,7.3,7.3,10.8,7.3,17.7v12h-16.4v-12.3c0-2.6-.9-4.6-2.7-6.5-1.8-1.8-3.9-2.7-6.5-2.7s-4.6.9-6.4,2.7-2.6,3.9-2.6,6.5v57.5c0,2.6.8,4.6,2.6,6.4s3.9,2.6,6.4,2.6,4.6-.8,6.5-2.6c1.8-1.8,2.7-3.9,2.7-6.4v-14.5h16.5v14.6c0,7-2.4,12.8-7.3,17.7-5,4.9-10.8,7.3-17.7,7.3Z"/>
          <path d="M507.8,137.9c7,0,12.8,2.4,17.9,7.3,4.9,4.9,7.3,10.8,7.3,17.7v57.2c0,7-2.4,12.8-7.3,17.9-4.9,4.9-10.8,7.3-17.7,7.3s-12.8-2.4-17.7-7.3-7.3-10.8-7.3-17.7v-57.2c0-7,2.4-12.8,7.3-17.9,4.9-4.9,10.8-7.3,17.6-7.3ZM516.4,162.8c0-2.6-.9-4.6-2.7-6.4s-3.9-2.7-6.4-2.7-4.6.9-6.5,2.7c-1.8,1.8-2.7,3.9-2.7,6.4v57.5c0,2.6.9,4.6,2.7,6.4s3.9,2.6,6.5,2.6,4.6-.8,6.4-2.6c1.8-1.8,2.7-3.9,2.7-6.4v-57.5Z"/>
          <path class="cls-11" d="M560.6,155.2h-16.8v-16h49.4v16h-16.8v89h-15.8v-89Z"/>
          <path d="M605.9,244.2v-104.9h45v16h-29.2v28.7h21.4v16h-21.4v28.7h29.2v16h-45v-.3Z"/>
          <path d="M686.9,245.6c-7,0-12.8-2.4-17.9-7.3-4.9-4.9-7.3-10.8-7.3-17.7v-57.2c0-7,2.4-12.8,7.3-17.9,4.9-4.9,10.8-7.3,17.7-7.3s12.8,2.4,17.7,7.3,7.3,10.8,7.3,17.7v12h-16.4v-12.3c0-2.6-.9-4.6-2.7-6.5-1.8-1.8-3.9-2.7-6.5-2.7s-4.6.9-6.4,2.7-2.6,3.9-2.6,6.5v57.5c0,2.6.8,4.6,2.6,6.4s3.9,2.6,6.4,2.6,4.6-.8,6.5-2.6c1.8-1.8,2.7-3.9,2.7-6.4v-14.5h16.4v14.6c0,7-2.4,12.8-7.3,17.7-4.9,4.9-10.7,7.3-17.6,7.3Z"/>
          <path d="M740.8,199.7v44.5h-15.8v-104.9h15.8v44.5h19.1v-63.4h15.8v123.9h-15.8v-44.5h-19.1Z"/>
        </g>
        <path class="cls-11" d="M125.3,121.5c-8.7-6.7-20.1-9.4-25.8-10.5-.2-3.6-1.7-7-4.2-9.5l15.9-49.7c.3-1.1.2-2.3-.4-3.2-.6-.9-1.6-1.6-2.8-1.7-.8,0-19.1-1.5-26.5,24-3.3,9.6-2.7,20.4-1.8,26.8-4.6,1.6-8.3,5.4-9.6,10.2l-50.8,12c-1.1.3-2,1-2.5,2-.5,1-.5,2.2,0,3.2.3.6,5.9,12,22.6,12,3.4,0,7.3-.5,11.7-1.6,10.2-2.2,19.3-8.5,23.9-12.2.4.4.9.7,1.4,1l-4.8,115.2c0,1,.3,2,1,2.8.7.7,1.7,1.2,2.7,1.2h18.1c1,0,2-.4,2.7-1.2.7-.7,1.1-1.7,1-2.7l-4.7-114.4,41.6,30.6c.7.5,1.4.7,2.2.7s.6,0,1-.1c1.1-.3,2-1.1,2.5-2.1.3-.7,7.6-17.6-14.4-32.9ZM88.6,73.3c0,0,0-.1,0-.2,3.4-11.7,9.3-16.2,13.6-17.8l-13.5,42.2c-.5-.2-1.1-.3-1.6-.4-.8-5.7-1.4-15.5,1.5-23.8ZM77,111.5c.3-3.7,3.3-6.7,7-7h.5c1.6,0,3.1.5,4.4,1.4,2,1.3,3.1,3.6,3.1,6s0,.9-.2,1.5c0,0,0,0,0,0-.4,1.6-1.2,3-2.4,4.1,0,0-.1.1-.2.2-.4.4-.9.7-1.4.9-.3,0-.6.1-.9.2-.2.1-.5.2-.6.2,0,0,0,0-.1,0-1.2.4-3.2.3-4.7-.4-.2,0-.4-.1-.6-.2-1.1-.6-2-1.4-2.7-2.4-.2-.3-.4-.6-.6-1,0-.1,0-.2-.1-.3-.4-.9-.6-1.9-.6-2.9s0-.1,0-.2c0-.1,0-.2,0-.3ZM49.4,128.4c0,0-.1,0-.2,0-11.9,3.1-18.7.3-22.3-2.5l43.1-10.2c0,.1,0,.2,0,.3.1.4.2.8.4,1.1,0,0,0,.1,0,.2-4,3.2-12.2,9.1-21.1,11ZM97.4,119.7c.2-.4.5-.8.7-1.2,5,.9,15.3,3.3,22.8,9.1,0,0,0,0,.1.1,10.1,7,12.4,14,12.6,18.6l-36.2-26.6Z"/>
      </g>
      <g id="Layer_2" class="cls-10">
        <g>
          <g>
            <path class="cls-7" d="M-273.5,101.4c0,134.4-83.1,249.4-200.8,296.4h-236.4c-104-41.5-181-136.2-197.5-250.4,3.9-136.8,146.8-244.4,213.2-168.9,1,1.1,2,2.2,2.9,3.4.2.2.4.5.7.8,1,1.2,2.1,2.5,3.1,3.7,1.1,1.3,2.2,2.7,3.4,4.1,4.7,5.8,9.4,11.8,14.1,18,.6.8,1.2,1.6,1.8,2.4.6.8,1.2,1.6,1.8,2.4,1.2,1.6,2.4,3.2,3.6,4.8,2,2.7,4,5.3,6,8.1.4.6.8,1.1,1.3,1.7,1.1,1.5,2.2,3,3.3,4.5l20.3,27.5c8,10.7,16.2,21.3,24.8,31.7h0c1.1,1.3,2.2,2.6,3.3,3.9,8.1,9.7,16.6,19.1,25.5,28,40.2,40.5,88.6,70.6,152.8,68.3,136.8-5,66.9-308.2,66.9-308.2,53.2,56.8,85.9,133.5,85.9,217.8Z"/>
            <path class="cls-6" d="M-426.6,191.6c-78.3,2.9-133.1-42.7-178.2-96.3,38.3,30.6,95.3,45.2,117.9,12.8,1.1-1.5,2.1-3.1,3.1-4.6l47.2,32.9s22.6-26.8-24.1-69.7c-5.3-4.9-10.7-9.1-16.1-12.9-5.8-28-23.9-54.7-36.2-70.3-15.4-19.6-26.6-42.3-32.3-66.6-15.3-65.9,17.3-102.9,33-116.3,4.5-3.9,10.7-5.1,16.4-3.3,52.7,16.7,99.4,46.8,136.3,86.1,0,0,69.8,303.2-67,308.2Z"/>
            <path class="cls-6" d="M-612.6-123.8c-12.1,48.9,4.1,88.9,11.3,103.4-1.1,2.4-2.2,4.8-3.4,7.3-11.2,4.7-19,15.8-19,28.7s.2,4.2.6,6.1c-.4.8-.9,1.5-1.3,2.3l-26.6,11.2c-1.9-2.5-3.7-5.1-5.6-7.6-.4-.6-.8-1.1-1.3-1.7-2-2.7-4-5.4-6-8.1-1.2-1.6-2.4-3.2-3.6-4.8s-1.2-1.6-1.8-2.4-1.2-1.6-1.8-2.4c-4.7-6.2-9.4-12.3-14.1-18-1.1-1.4-2.2-2.7-3.3-4.1-1-1.3-2.1-2.5-3.1-3.7-.2-.3-.4-.5-.6-.8-1-1.1-1.9-2.3-2.9-3.4-66.3-75.2-209.2,32.4-213.2,169.2-2.2-15-3.3-30.4-3.3-46,0-154.4,109.6-283.1,255.3-312.7,3.2-.7,6.6-.5,9.7.4,13.6,4,40.6,14.9,56.9,42.2-8.4,7.8-17,21.3-22.9,44.9Z"/>
            <path class="cls-1" d="M-561.4,15.7c0,4-.7,7.7-2.1,11.2-2.1,5.6-5.8,10.4-10.5,13.8-3.2,2.4-6.8,4.1-10.7,5.1-2.5.6-5.1,1-7.8,1-4.3,0-8.5-.9-12.2-2.5-4.2-1.8-7.8-4.4-10.8-7.7-3.7-4.1-6.4-9.2-7.5-14.8-.4-2-.6-4-.6-6.1,0-12.9,7.8-24,19-28.7,2-.8,4.1-1.5,6.3-1.9,1.9-.4,3.8-.5,5.8-.5,4.2,0,8.2.8,11.8,2.3,11.3,4.5,19.3,15.7,19.3,28.8Z"/>
            <path class="cls-2" d="M-351.8,157.6c0,1.5-.2,3-.5,4.5-1,4.5-3.4,8.5-6.7,11.4-1.9,1.7-4.1,3-6.4,3.9-.7.3-1.5.5-2.2.7-1.7.5-3.5.7-5.3.7-2.9,0-5.7-.6-8.3-1.7-3.7-1.6-6.9-4.2-9.2-7.5-2.3-3.4-3.7-7.5-3.7-11.9s0-1,.1-1.5c.8-10.6,9.3-19,19.9-19.6h1.1c4.6,0,8.8,1.4,12.3,3.9,5.4,3.7,8.9,10,8.9,17.1Z"/>
            <path class="cls-2" d="M-574,199.7h-41.6l7.5-108.3,3.3-47.1c3.8,1.6,7.9,2.5,12.2,2.5s5.3-.3,7.8-1l5.4,77.5,5.4,76.4Z"/>
            <polygon class="cls-2" points="-639 199.7 -653.3 262.5 -767.4 262.5 -736.3 199.7 -639 199.7"/>
            <polygon class="cls-2" points="-418 262.5 -530.4 262.5 -544.7 199.7 -447.7 199.7 -418 262.5"/>
            <polygon class="cls-2" points="-530.4 262.5 -653.3 262.5 -639 199.7 -544.7 199.7 -530.4 262.5"/>
            <polygon class="cls-2" points="-516.1 325.4 -667.6 325.4 -653.3 262.5 -530.4 262.5 -516.1 325.4"/>
            <polygon class="cls-2" points="-653.3 262.5 -667.6 325.4 -798.6 325.4 -767.4 262.5 -653.3 262.5"/>
            <polygon class="cls-2" points="-388.3 325.4 -516.1 325.4 -530.4 262.5 -418 262.5 -388.3 325.4"/>
            <line class="cls-2" x1="-767.4" y1="262.5" x2="-767.4" y2="262.5"/>
            <circle class="cls-2" cx="-802.6" cy="39.5" r="27.2"/>
            <circle class="cls-2" cx="-443.5" cy="-56.2" r="32.4"/>
            <circle class="cls-2" cx="-898" cy="21.2" r="32.4"/>
            <polygon class="cls-2" points="-563.3 397.8 -623.7 397.8 -618.6 325.4 -568.4 325.4 -563.3 397.8"/>
            <path class="cls-2" d="M-356.4,397.8h-34l9.1-220.8c2.5,1.1,5.4,1.7,8.3,1.7s3.6-.2,5.3-.7c.8-.2,1.5-.4,2.2-.7l9.1,220.5Z"/>
            <line class="cls-5" x1="-877.2" y1="397.8" x2="-326.8" y2="397.8"/>
            <path class="cls-7" d="M-436.6,136.4l-47.2-32.9c9.4-15.6,10.4-32.9,6.9-49.7,5.4,3.7,10.8,8,16.1,12.9,46.8,43,24.2,69.7,24.2,69.7Z"/>
            <path class="cls-6" d="M-483.8,103.5l-90.2-62.8c4.7-3.5,8.4-8.3,10.5-13.8,0,0,44-2.5,86.6,27,3.5,16.8,2.5,34.1-6.9,49.6Z"/>
            <path class="cls-1" d="M-563-178.5l-17.7,165.3c-3.6-1.5-7.6-2.3-11.8-2.3s-3.9.2-5.8.5c-.5-.8-1.5-2.6-2.9-5.4-7.2-14.5-23.4-54.5-11.3-103.4,5.8-23.6,14.5-37.2,22.9-44.9,13.5-12.4,26.6-9.8,26.6-9.8Z"/>
            <path class="cls-1" d="M-615.6,36.6s-5.7,10.2-17.3,23.1c-14.6,16.2-38.8,36.5-73,45.7-61.3,16.5-71.8-16.9-71.8-16.9l126.7-53.3,26.5-11.1c.5-.8.9-1.5,1.3-2.3,1.2,5.7,3.9,10.7,7.6,14.8Z"/>
            <path class="cls-2" d="M-276,234.4l-83.1-61c3.3-2.9,5.7-6.9,6.7-11.4,0,0,30.8,3.2,51.7,19.3,37.1,25.7,24.7,53.1,24.7,53.1Z"/>
            <path class="cls-2" d="M-329.5,42.7l-31.2,97.7c-3.5-2.5-7.7-3.9-12.3-3.9h-1.1c-1.2-6.6-5.3-32.1,2.2-53.6,12.5-43.2,42.4-40.2,42.4-40.2Z"/>
            <path class="cls-2" d="M-390.4,169.5c-5,4.5-24.8,21-47,25.7-43.5,11.5-56.4-15.6-56.4-15.6l99.8-23.6c0,.5-.1,1-.1,1.5,0,4.5,1.4,8.6,3.7,12Z"/>
            <path class="cls-2" d="M-811.7,397.8s7.5-144.8-18.1-224.8"/>
            <path class="cls-2" d="M-814.5,257.6s-45.4-28-51.1-62.7,26.8-70.1,40.3-88.2c0,0,51.4,48.3,47.6,88.2s-31.2,57.1-36.8,62.7Z"/>
            <path class="cls-2" d="M-436.6,136.4l-137.4-95.7c4.7-3.5,8.4-8.3,10.5-13.8,0,0,56-3.2,102.7,39.8,46.7,43,24.2,69.7,24.2,69.7Z"/>
          </g>
          <g>
            <path d="M-864.7,460.4v35h-12.5v-101.1h12.5v53.5h15v-35.1h12.5v82.7h-12.5v-35h-15Z"/>
            <path d="M-813.5,495.4h-12.5v-82.7h12.5v82.7Z"/>
            <path d="M-763.2,475.6c0,5.5-1.9,10.1-5.7,14s-8.4,5.8-13.9,5.8h-19.6v-82.7h19.6c5.5,0,10.1,1.9,13.9,5.8,3.8,3.9,5.7,8.5,5.7,13.9v43.2ZM-789.9,483.1h7.5c2,0,3.7-.7,5-2.1,1.4-1.4,2-3.1,2-5v-43.3c0-2-.7-3.7-2.1-5.1-1.4-1.4-3-2.1-5-2.1h-7.5v57.6h0Z"/>
            <path d="M-732.6,412.7c7,0,12.1,1.9,15.3,5.7,2.9,3.3,4.3,8,4.3,14v12c0,5.9-2.2,10.8-6.7,14.8l9.2,36.1h-13.5l-7.6-31.1h-8.3v31.1h-12.5v-82.7h19.8ZM-725.1,432.7c0-4.8-2.4-7.2-7.1-7.2h-7.5v26.5h7.5c2,0,3.7-.7,5-2.1s2.1-3.1,2.1-5.1v-12.1Z"/>
            <path d="M-682.1,411.7c5.5,0,10.2,1.9,14,5.8s5.8,8.5,5.8,14v45.1c0,5.5-1.9,10.2-5.8,14-3.9,3.8-8.5,5.8-14,5.8s-10.2-1.9-14-5.8-5.7-8.5-5.7-14v-45.1c0-5.5,1.9-10.2,5.8-14,3.8-3.9,8.5-5.8,13.9-5.8ZM-675.3,431.2c0-2-.7-3.7-2.1-5s-3.1-2.1-5-2.1-3.7.7-5.1,2.1c-1.4,1.4-2.1,3.1-2.1,5v45.3c0,2,.7,3.7,2.1,5,1.4,1.4,3.1,2.1,5.1,2.1s3.7-.7,5-2.1,2.1-3.1,2.1-5v-45.3Z"/>
            <path d="M-651.4,495.4v-82.7h35.5v12.5h-23v22.6h16.8v12.5h-16.8v22.6h23v12.5h-35.5Z"/>
            <path d="M-587.5,496.5c-5.5,0-10.2-1.9-14-5.8-3.9-3.8-5.8-8.5-5.8-14v-45.1c0-5.5,1.9-10.2,5.8-14,3.9-3.8,8.5-5.8,14-5.8s10.2,1.9,14,5.8,5.7,8.5,5.7,14v9.4h-12.9v-9.7c0-2-.7-3.7-2.1-5.1-1.4-1.4-3.1-2.1-5.1-2.1s-3.7.7-5,2.1c-1.4,1.4-2.1,3.1-2.1,5.1v45.3c0,2,.7,3.7,2.1,5s3.1,2.1,5,2.1,3.7-.7,5.1-2.1c1.4-1.4,2.1-3.1,2.1-5v-11.4h12.9v11.5c0,5.5-1.9,10.2-5.8,14-3.8,3.9-8.5,5.8-13.9,5.8Z"/>
            <path d="M-538,411.7c5.5,0,10.2,1.9,14,5.8s5.8,8.5,5.8,14v45.1c0,5.5-1.9,10.2-5.8,14-3.9,3.8-8.5,5.8-14,5.8s-10.2-1.9-14-5.8-5.7-8.5-5.7-14v-45.1c0-5.5,1.9-10.2,5.8-14,3.9-3.9,8.5-5.8,13.9-5.8ZM-531.2,431.2c0-2-.7-3.7-2.1-5-1.4-1.4-3.1-2.1-5-2.1s-3.7.7-5.1,2.1c-1.4,1.4-2.1,3.1-2.1,5v45.3c0,2,.7,3.7,2.1,5,1.4,1.4,3.1,2.1,5.1,2.1s3.7-.7,5-2.1c1.4-1.4,2.1-3.1,2.1-5v-45.3Z"/>
            <path d="M-496.4,425.3h-13.3v-12.5h38.9v12.5h-13.2v70.1h-12.5v-70.1h.1Z"/>
            <path d="M-460.7,495.4v-82.7h35.5v12.5h-23v22.6h16.8v12.5h-16.8v22.6h23v12.5h-35.5Z"/>
            <path d="M-396.8,496.5c-5.5,0-10.2-1.9-14-5.8-3.8-3.8-5.8-8.5-5.8-14v-45.1c0-5.5,1.9-10.2,5.8-14s8.5-5.8,14-5.8,10.2,1.9,14,5.8,5.7,8.5,5.7,14v9.4h-12.9v-9.7c0-2-.7-3.7-2.1-5.1s-3.1-2.1-5.1-2.1-3.7.7-5,2.1c-1.4,1.4-2.1,3.1-2.1,5.1v45.3c0,2,.7,3.7,2.1,5s3.1,2.1,5,2.1,3.7-.7,5.1-2.1,2.1-3.1,2.1-5v-11.4h12.9v11.5c0,5.5-1.9,10.2-5.8,14-3.8,3.9-8.5,5.8-13.9,5.8Z"/>
            <path d="M-354.4,460.4v35h-12.5v-82.7h12.5v35.1h15v-50h12.5v97.6h-12.5v-35h-15Z"/>
          </g>
        </g>
      </g>
    </g>
  </g>
</svg>